# AST/ASF file generated using VICON BodyLanguage
# -----------------------------------------------
:version 1.10
:name VICON
:units
  mass 1.0
  length 0.45
  angle deg
:documentation
   .ast/.asf automatically generated from VICON data using
   VICON BodyBuilder and BodyLanguage model FoxedUp or BRILLIANT.MOD
:root
   order TX TY TZ RX RY RZ
   axis XYZ
   position 0 0 0  
   orientation 0 0 0 
:bonedata
  begin
     id 1 
     name lhipjoint
     direction 0.707368 -0.647095 0.284426 
     length 2.60678 
     axis 0 0 0  XYZ
  end
  begin
     id 2 
     name lfemur
     direction 0.34202 -0.939693 0  
     length 6.63812  
     axis 0 0 20  XYZ
    dof rx ry rz
    limits (-160.0 20.0)
           (-70.0 70.0)
           (-60.0 70.0)
  end
  begin
     id 3 
     name ltibia
     direction 0.34202 -0.939693 0   
     length 7.51178   
     axis 0 0 20   XYZ
    dof rx
    limits (-10.0 170.0)
  end
  begin
     id 4 
     name lfoot
     direction 0.121251 -0.333133 0.935051   
     length 1.83716   
     axis -90 7.62852e-016 20   XYZ
    dof rx rz
    limits (-45.0 90.0)
           (-70.0 20.0)
  end
  begin
     id 5 
     name ltoes
     direction 1.53611e-011 -4.21962e-011 1   
     length 0.916133   
     axis -90 7.62852e-016 20   XYZ
    dof rx
    limits (-90.0 20.0)
  end
  begin
     id 6 
     name rhipjoint
     direction -0.692419 -0.660507 0.290321   
     length 2.55385  
     axis 0 0 0  XYZ 
  end
  begin
     id 7 
     name rfemur
     direction -0.34202 -0.939693 0   
     length 7.29079   
     axis 0 0 -20   XYZ
    dof rx ry rz
    limits (-160.0 20.0)
           (-70.0 70.0)
           (-70.0 60.0)
  end
  begin
     id 8 
     name rtibia
     direction -0.34202 -0.939693 0   
     length 7.47143   
     axis 0 0 -20   XYZ
    dof rx
    limits (-10.0 170.0)
 end
 begin
     id 9 
     name rfoot
     direction -0.119907 -0.329441 0.936532   
     length 1.79439  
     axis -90 -7.62852e-016 -20   XYZ
    dof rx rz
    limits (-45.0 90.0)
           (-20.0 70.0)
  end
  begin
     id 10 
     name rtoes
     direction -1.53571e-011 -4.21961e-011 1   
     length 0.896039   
     axis -90 -7.62852e-016 -20   XYZ
    dof rx
    limits (-90.0 20.0)
  end
  begin
     id 11 
     name lowerback
     direction 0.0367721 0.992912 -0.113016   
     length 1.73542   
     axis 0 0 0   XYZ
    dof rx ry rz
    limits (-20.0 45.0)
           (-30.0 30.0)
           (-30.0 30.0)
  end
  begin
     id 12 
     name upperback
     direction -0.000314626 0.990678 0.136227   
     length 1.7514   
     axis 0 0 0   XYZ
    dof rx ry rz
    limits (-20.0 45.0)
           (-30.0 30.0)
           (-30.0 30.0)
  end
  begin
     id 13 
     name thorax
     direction -0.0226159 0.981151 0.191917   
     length 1.71471   
     axis 0 0 0   XYZ
    dof rx ry rz
    limits (-20.0 45.0)
           (-30.0 30.0)
           (-30.0 30.0)
  end
  begin
     id 14 
     name lowerneck
     direction 0.0219333 0.998071 0.0580739   
     length 1.65882   
     axis 0 0 0   XYZ
    dof rx ry rz
    limits (-20.0 45.0)
           (-30.0 30.0)
           (-30.0 30.0)
  end
  begin
     id 15 
     name upperneck
     direction 0.0384529 0.980058 -0.194957   
     length 1.6612   
     axis 0 0 0   XYZ
    dof rx ry rz
    limits (-20.0 45.0)
           (-30.0 30.0)
           (-30.0 30.0)
  end
  begin
     id 16
     name head
     direction 0.00592123 0.997421 -0.0715234  
     length 1.68077  
     axis 0 0 0   XYZ
    dof rx ry rz
    limits (-20.0 45.0)
           (-30.0 30.0)
           (-30.0 30.0)
  end
  begin
     id 17 
     name lclavicle
     direction 0.904803 0.417826 0.0821728  
     length 3.42227  
     axis 0 0 0   XYZ
    dof ry rz
    limits (-20.0 10.0)
           (0.0 20.0)
  end
  begin
     id 18 
     name lhumerus
     direction 1 -4.48965e-011 -2.68786e-027   
     length 5.11878   
     axis -180 -30 -90   XYZ
    dof rx ry rz
    limits (-60.0 90.0)
           (-90.0 90.0)
           (-90.0 90.0)
  end
  begin
     id 19
     name lradius
     direction 1 -4.48965e-011 2.61168e-028   
     length 3.59971   
     axis -180 -30 -90   XYZ
    dof rx
    limits (-10.0 170.0)
  end
  begin
     id 20
     name lwrist
     direction 1 -4.48965e-011 1.58672e-027   
     length 1.79985   
     axis -1.65735e-015 90 90   XYZ
    dof ry
    limits (-180.0 0.0)
 end
  begin
     id 21 
     name lhand
     direction 1 -4.48942e-011 3.17344e-027   
     length 0.62877   
     axis -2.02492e-015 90 90   XYZ
    dof rx rz
    limits (-90.0 90.0)
           (-45.0 45.0)
  end
  begin
     id 22 
     name lfingers
     direction 1 -4.49011e-011 6.34687e-027   
     length 0.506931   
     axis -4.04985e-015 90 90   XYZ
    dof rx
    limits (0.0 90.0)
  end
  begin
     id 23
     name lthumb
     direction 0.707107 -6.34982e-011 0.707107   
     length 0.727854   
     axis -90 45 2.85299e-015   XYZ
    dof rx rz
    limits (-45.0 45.0)
           (-45.0 45.0)
  end
  begin
     id 24 
     name rclavicle
     direction -0.945647 0.32488 0.0143075   
     length 3.52737  
     axis 0 0 0   XYZ 
    dof ry rz
    limits (-10.0 20.0)
           (-20.0 0.0)
  end
  begin
     id 25 
     name rhumerus
     direction -1 -4.48962e-011 1.92182e-027  
     length 5.4902   
     axis -180 30 90   XYZ
    dof rx ry rz
    limits (-90.0 60.0)
           (-90.0 90.0)
           (-90.0 90.0)
  end
  begin
     id 26 
     name rradius
     direction -1 -4.48967e-011 -5.97193e-028   
     length 3.20659   
     axis -180 30 90   XYZ
    dof rx
    limits (-10.0 170.0)
  end
  begin
     id 27 
     name rwrist
     direction -1 -4.48964e-011 1.58672e-027   
     length 1.6033   
     axis -1.65735e-015 -90 -90   XYZ
    dof ry
    limits (-180.0 0.0)
  end
  begin
     id 28
     name rhand
     direction -1 -4.49006e-011 3.17344e-027   
     length 0.691885   
     axis -2.02492e-015 -90 -90   XYZ
    dof rx rz
    limits (-90.0 90.0)
           (-45.0 45.0)
  end
  begin
     id 29
     name rfingers
     direction -1 -4.48908e-011 6.34687e-027   
     length 0.557815   
     axis -4.04985e-015 -90 -90   XYZ
    dof rx
    limits (0.0 90.0)
  end
  begin
     id 30
     name rthumb
     direction -0.707107 -6.34999e-011 0.707107   
     length 0.800915   
     axis -90 -45 -2.85299e-015   XYZ
    dof rx rz
    limits (-45.0 45.0)
           (-45.0 45.0)
  end
:hierarchy
  begin
    root lhipjoint rhipjoint lowerback
    lhipjoint lfemur
    lfemur ltibia
    ltibia lfoot
    lfoot ltoes
    rhipjoint rfemur
    rfemur rtibia
    rtibia rfoot
    rfoot rtoes
    lowerback upperback
    upperback thorax
    thorax lowerneck lclavicle rclavicle
    lowerneck upperneck
    upperneck head
    lclavicle lhumerus
    lhumerus lradius
    lradius lwrist
    lwrist lhand lthumb
    lhand lfingers
    rclavicle rhumerus
    rhumerus rradius
    rradius rwrist
    rwrist rhand rthumb
    rhand rfingers
  end

#!OML:ASF I:\Actors\actors\Patient Classification 1\Patient 1\Session 1\Subject1.ASF
:FULLY-SPECIFIED
:DEGREES
1
root 0.800694 17.4302 9.40857 10.2109 -4.09511 -8.60199
lowerback -0.494143 1.37256 5.08004
upperback -9.57866 2.19612 1.26009
thorax -9.74501 0.717263 -1.66155
lowerneck -0.267787 -15.7936 -10.8491
upperneck 16.6477 -22.9906 10.1913
head 7.6186 -11.2001 2.99114
rclavicle 5.96354e-015 2.94201e-014
rhumerus -46.233 -28.2441 -69.108
rradius 24.4183
rwrist 46.7831
rhand 4.32899 -32.0708
rfingers 7.12502
rthumb 29.7297 -59.7067
lclavicle 5.96354e-015 2.94201e-014
lhumerus -45.3698 27.6101 66.7634
lradius 21.9095
lwrist -33.8125
lhand -13.4248 -8.20278
lfingers 7.12502
lthumb 12.6836 21.3921
rfemur -5.57061 26.6085 23.9006
rtibia 2.91038
rfoot -10.5847 -23.0469
rtoes -3.82299
lfemur 5.06655 -41.9116 -13.375
ltibia -4.0727
lfoot -18.108 52.1914
ltoes 27.6224
2
root 0.800516 17.4312 9.40899 10.2169 -4.07308 -8.5679
lowerback -0.627856 1.15662 4.92778
upperback -9.55078 1.90316 1.48062
thorax -9.66336 0.599099 -1.3172
lowerneck -0.317254 -15.588 -11.3272
upperneck 16.7832 -22.7365 10.4029
head 7.72529 -11.0856 3.13736
rclavicle -3.47873e-015 9.93923e-015
rhumerus -45.8768 -27.7152 -69.2698
rradius 24.3283
rwrist 46.9063
rhand 4.32593 -32.0102
rfingers 7.12502
rthumb 29.7268 -59.6466
lclavicle -3.47873e-015 9.93923e-015
lhumerus -45.2647 27.0154 67.8472
lradius 21.9474
lwrist -30.4539
lhand -14.5863 -7.92807
lfingers 7.12502
lthumb 11.5637 21.7329
rfemur -5.51558 26.8155 23.8773
rtibia 2.83626
rfoot -10.5819 -23.2445
rtoes -0.0447857
lfemur 5.01943 -41.817 -13.3862
ltibia -4.04086
lfoot -20.8904 51.746
ltoes 14.4305
3
root 0.800032 17.4308 9.40801 10.2042 -4.05423 -8.55156
lowerback -0.675607 0.941097 4.8033
upperback -9.54529 1.61969 1.70718
thorax -9.65406 0.481294 -0.98518
lowerneck -0.326335 -15.3749 -11.8428
upperneck 16.8772 -22.4693 10.6258
head 7.81412 -10.9697 3.3004
rclavicle -1.64991e-014 -5.1684e-015
rhumerus -45.5743 -27.1313 -69.4068
rradius 24.2508
rwrist 47.0634
rhand 4.27954 -31.9119
rfingers 7.12502
rthumb 29.6825 -59.5562
lclavicle -1.64991e-014 -5.1684e-015
lhumerus -45.5895 27.46 67.7898
lradius 21.936
lwrist -29.8489
lhand -15.5018 -8.24119
lfingers 7.12502
lthumb 10.6808 21.4673
rfemur -5.48029 26.8707 23.876
rtibia 2.81073
rfoot -10.5898 -23.3148
rtoes -0.0515753
lfemur 5.00583 -41.7617 -13.3962
ltibia -4.02606
lfoot -20.9261 51.7447
ltoes 12.9472
4
root 0.799348 17.4298 9.40665 10.1757 -4.05059 -8.59984
lowerback -0.668109 0.728391 4.73765
upperback -9.54808 1.34939 1.96524
thorax -9.68359 0.365739 -0.654023
lowerneck -0.369553 -15.178 -12.3687
upperneck 17.0013 -22.2095 10.7762
head 7.9106 -10.8609 3.43996
rclavicle 6.5102e-015 -1.07344e-014
rhumerus -45.2896 -26.4879 -69.5374
rradius 24.1851
rwrist 47.1794
rhand 4.23656 -31.8103
rfingers 7.12502
rthumb 29.6415 -59.4619
lclavicle 6.5102e-015 -1.07344e-014
lhumerus -46.0716 28.1367 67.4842
lradius 21.9885
lwrist -29.8937
lhand -15.521 -8.48318
lfingers 7.12502
lthumb 10.6622 21.2263
rfemur -5.4352 26.9016 23.9595
rtibia 2.81253
rfoot -10.5791 -23.3502
rtoes -1.39484
lfemur 5.04755 -41.7538 -13.3547
ltibia -4.05052
lfoot -20.8618 51.7639
ltoes 12.899
5
root 0.798632 17.4299 9.40625 10.1705 -4.03899 -8.69594
lowerback -0.693594 0.501247 4.69564
upperback -9.54777 1.06026 2.25074
thorax -9.68833 0.240945 -0.304645
lowerneck -0.538635 -15.0109 -12.8169
upperneck 17.2353 -21.9689 10.7965
head 8.04205 -10.7582 3.51558
rclavicle -1.09332e-014 3.57812e-015
rhumerus -44.8305 -25.7717 -69.7245
rradius 23.838
rwrist 47.1951
rhand 4.01025 -31.6883
rfingers 7.12502
rthumb 29.4255 -59.3781
lclavicle -1.09332e-014 3.57812e-015
lhumerus -46.525 29.0006 67.0483
lradius 21.8568
lwrist -30.0719
lhand -15.4364 -9.1951
lfingers 7.12502
lthumb 10.7438 20.5102
rfemur -5.40019 26.9193 24.0838
rtibia 2.78199
rfoot -10.5318 -23.3664
rtoes 0.326784
lfemur 5.06384 -41.7466 -13.2308
ltibia -4.09902
lfoot -20.6384 51.8084
ltoes 12.6539
6
root 0.797039 17.4318 9.42646 10.3558 -3.72178 -9.15522
lowerback -1.27445 -0.0270482 4.93746
upperback -9.54423 0.363332 2.90646
thorax -9.37708 -0.0847085 0.309743
lowerneck -0.739772 -14.5893 -13.6679
upperneck 17.5823 -21.3575 10.8375
head 8.21636 -10.5003 3.70019
rclavicle -1.21756e-015 -2.68359e-014
rhumerus -43.9316 -24.216 -70.161
rradius 23.1607
rwrist 47.1298
rhand 3.57365 -31.5254
rfingers 7.12502
rthumb 29.0086 -59.2877
lclavicle -1.21756e-015 -2.68359e-014
lhumerus -47.5206 30.7538 66.0944
lradius 21.6427
lwrist -30.4291
lhand -15.1701 -10.3582
lfingers 7.12502
lthumb 11.0006 19.3336
rfemur -5.31978 26.6107 24.6615
rtibia 2.5502
rfoot -10.4789 -23.278
rtoes 2.50691
lfemur 4.91937 -41.6892 -12.5461
ltibia -4.25039
lfoot -20.0475 51.6966
ltoes 11.9601
